<?xml version="1.0" encoding="UTF-8"?><svg id="Layer_1" xmlns="http://www.w3.org/2000/svg" viewBox="0 0 1162.79 241.62"><defs><style>.cls-1{fill:#231f20;}</style></defs><path class="cls-1" d="M28.2,69.87c21.33,3.14,42.13,9.4,61.52,18.85,16.03,7.82,30.82,17.69,45.26,28.09,7.97,5.74,17.03,13.97,27.04,15.75,14.15,2.51,19.67-15.14,16.44-26.29-2.29-7.9-9.9-12.53-18.06-10.75-6.97,1.52-10.11,7.31-10.6,13.97-1.17,15.81,8.72,33.53,20.77,43.15,15.04,12,35.15,11.06,53.2,8.64,23.28-3.12,45.61-10.5,67.92-17.54,24.51-7.73,50.32-15.95,76.33-15.27,9.93,.26,23.92,2.67,28.3,13.09,2.93,6.98,1.16,17.58-7.26,19.31l5.08,2.07c-2.5-4.49,1.44-10.26,6.4-10.1l-4.34-3.3c1.19,4.22-.45,8.24-4.24,10.44l5.45,.7c-1.37-1.56-.34-3.48,1.19-4.29l-6.16-1.61c.47,.56,.3,.87-.5,.93l6.16,1.61c-3.73-5.71,2.17-13.65,8.58-13.6,8.03,.06,12.77,9.68,12.43,16.65-.78,15.67-25.13,34.84-40.18,25.7-6.56-3.98-8.78-12.75-7.71-19.94,1.38-9.28,7.95-17.02,14.53-23.25,11.92-11.3,31.99-24.89,48.91-16.27,22.1,11.26,16.1,41.56,11.65,60.71h8.68c-3.35-19.96,6.99-40.75,25.23-49.66,8.8-4.3,19.19-5.78,28.83-4.08,2.22,.39,4.43,.94,6.57,1.64,3.61,1.19,3.84,1.58,1.76,4.79-3.36,5.18-7.22,9.99-11.35,14.57-3.86,4.29,2.44,10.66,6.36,6.36,4.42-4.83,13.92-3.77,16.83,2.41,3.46,7.36-6.8,15.34-13.51,12.18l2.07,5.08c2.39-8.9,12.56-13.81,21.29-11.61,10.37,2.62,16.42,12.78,18.16,22.69,1,5.71,9.63,3.27,8.68-2.39-5.44-32.39,3.1-66.37,22.42-92.82,19.45-26.63,50.54-43.75,83.14-47.61,15.6-1.85,32.67-1.24,47.59,4.06,7.52,2.67,14.78,7.43,16.95,15.57,2.06,7.72-.56,16.24-5.16,22.54-10.5,14.38-30.88,20.91-47.08,26.11-8.97,2.88-18.12,5.22-27.38,7.01-8.68,1.67-17.69,2.41-25.97,5.66-7.82,3.07-14.36,8.26-17.63,16.17-2.77,6.69-2.71,15.32,2.63,20.81,8.44,8.66,27.72,4.26,26.98-9.41-.13-2.47-1.95-4.44-4.5-4.5-5.35-.12-9.68,3.18-10.98,8.37l7.52-1.99c1.06,3.05,.1,3.3-2.9,.74l5.08,2.07c-.74-1.02-1.92-2.84-2.53-3.27,.09,.06-.76,.58-.69,.73-1.12-2.26,.97-4.29,2.89-4.97,4.82-1.7,11.17,2.17,14.64,5.21,7.21,6.32,10.95,16.31,9.14,25.77l7.52-1.99c-10.26-12.87-1.6-31.01,9.65-39.84,11.52-9.04,28.13-15.26,42.67-16.92,6.17-.7,13.26-.65,18.69,2.78,6.99,4.4,8.2,12.77,6.45,20.29-1.34,5.79-5.89,19.13-13.19,19.87-1.43,.14-3.53-.43-4.29-1.78-1.11-1.98,.94-3.05,2.61-3.78,3.17-1.4,7.01-1.73,10.42-1.66,15.16,.31,29.19,11.37,32.59,26.14,1.32,5.73,9.63,3.22,8.68-2.39-3.06-18.14,6.91-35.16,20.43-46.5,16.11-13.52,37.28-17.57,57.81-17.49,23.07,.1,46.01,4.59,68.74,8.04,11.76,1.78,23.51,3.57,35.27,5.35,10.24,1.55,21.05,4.48,31.46,4.14,20.06-.65,28.58-18.66,29.79-36.4,.39-5.78-8.61-5.76-9,0-.49,7.15-2.03,14.84-6.61,20.57-6.92,8.66-17.79,7.13-27.5,5.5-23.8-4-47.72-7.34-71.58-10.96-39.48-5.99-85.51-12.39-117.51,17.33-14.64,13.59-23.36,32.75-19.97,52.82l8.68-2.39c-4.39-19.04-23.12-33.07-42.57-32.75-8.36,.14-22.61,3.51-21.18,14.62,1.4,10.91,14.9,12.83,22.4,7.18,8.37-6.31,13.21-18.82,14.15-28.95,.98-10.56-3.91-20.99-13.66-25.69-17.89-8.63-42.32,.68-58.56,9.13-11.07,5.76-20.9,14.27-25.53,26.11-4.5,11.53-3.53,24.22,4.27,34.01,2.06,2.58,6.92,1.15,7.52-1.99,2.5-13.1-2.15-26.85-12.51-35.43-8.88-7.35-29.01-12.36-31.89,3.72-.93,5.18,1.77,11.12,7.31,12.16,5.11,.96,10.62-3.14,11.35-8.25,.82-5.78-4.31-9.72-9.68-7.56s-7.98,9.22-4.49,14.04c1.21,1.67,3,2.59,5.08,2.07,6.85-1.71,9.46-12.3,2.01-15.2-7.18-2.79-12.84,6.78-7.86,12.14,2.29,2.46,6.72,1.23,7.52-1.99,.18-1.41,.94-2,2.3-1.77l-4.5-4.5c.27,4.95-7.23,6.26-10.63,3.89-6.28-4.36-1.44-14.34,2.73-18.27,6.41-6.04,16.23-7.28,24.55-8.66,9.53-1.58,18.95-3.53,28.25-6.16,27.01-7.63,74.22-23.81,66.72-60.69-3.25-15.99-19.34-23.06-33.77-25.97-15.8-3.19-32.02-3.23-47.89-.51-31.55,5.41-60.87,22.43-80.47,47.82-22.39,29.02-31.73,66.75-25.66,102.86l8.68-2.39c-2.41-13.78-12.44-27.21-26.93-29.46-12.83-1.99-26.43,5.57-29.87,18.37-.48,1.78,.28,4.24,2.07,5.08,13.35,6.27,31.47-6.12,27.08-21.44-3.82-13.32-23.07-17.3-32.22-7.29l6.36,6.36c6.57-7.29,25.27-25.83,9.52-32.92-11.93-5.37-26.64-5.29-38.91-1.17-26.19,8.81-41.23,35.92-36.7,62.85,.75,4.44,7.72,4.14,8.68,0,3.33-14.35,6.71-29.42,3.32-44.09-2.64-11.43-9.6-22.4-20.5-27.45-23.33-10.81-50.77,7.94-65.16,25.51-7.65,9.34-12.44,20.76-9.92,32.93,2.28,11.05,10.89,19.64,22.34,20.49,21.8,1.62,48.73-22.08,41.99-45-3.2-10.87-14.32-20.57-26.12-16.37-10.19,3.62-16.93,16.46-10.6,26.14,1.42,2.18,3.85,2.68,6.16,1.61,5.04-2.34,6.6-8.63,3.73-13.24-1.33-2.13-3.95-2.78-6.16-1.61-6.96,3.68-8.01,12.71-3.01,18.43,1.3,1.49,3.81,1.66,5.45,.7,7.25-4.19,10.64-12.54,8.37-20.6-.55-1.96-2.35-3.24-4.34-3.3-11.92-.38-19.88,13.38-14.18,23.64,1.02,1.83,3.14,2.47,5.08,2.07,14.68-3.02,18.37-21.64,12.2-33.45-8.65-16.56-31.53-17.49-47.67-16.21-44.16,3.5-84.3,24.41-127.68,31.68-16.61,2.78-37.62,5.5-51.89-5.7-6.6-5.18-11.56-12.65-14.6-20.41-1.93-4.93-5.02-13.58-2.39-18.83,1.36-2.7,4.86-3.11,7.51-1.84,3.31,1.59,3.6,6.39,3.4,9.58-.18,2.99-.98,6.83-3.45,8.82-.81,.66-1.3,.7-2.5,.64-7.34-.41-16.91-9.06-23.15-13.55-15.02-10.82-30.3-21.19-46.99-29.33-20.09-9.8-41.55-16.5-63.67-19.76-5.67-.83-8.11,7.84-2.39,8.68h0Z"/><path class="cls-1" d="M1025.56,104.11c-3.59-9.76-15.72-12.61-24.24-7.18-10.45,6.66-8.33,21.63-.62,29.51,10.41,10.65,27.25,7.85,39.08,1.44,7-3.8,13.14-8.92,19.64-13.47,7-4.9,14.34-9.3,21.96-13.17,14.6-7.41,33.97-15.83,49.74-7.02,5.06,2.83,9.6-4.94,4.54-7.77-13.06-7.3-28.25-5.41-41.82-.49-15.22,5.52-29.55,13.77-42.59,23.29-10.83,7.91-29.68,23.11-43.22,11.75-4.18-3.51-7.53-11.84-2.49-16.07,2.97-2.5,9.78-2.68,11.35,1.58,1.98,5.39,10.68,3.06,8.68-2.39h0Z"/></svg>